<svg width="84" height="92" viewBox="0 0 84 92" fill="none" xmlns="http://www.w3.org/2000/svg">
<rect width="83.9996" height="92.0006" fill="#FF6600"/>
<path fill-rule="evenodd" clip-rule="evenodd" d="M56.2808 65.9513C58.1396 65.9513 59.8 65.0988 60.8913 63.7642L57.116 59.9916H71.9996V74.8665L68.0045 70.8717C65.0819 74.0151 60.9121 75.9823 56.2808 75.9823C47.4426 75.9823 40.2792 68.8225 40.2792 59.9916C40.2792 51.1594 47.4426 44 56.2808 44C64.1008 44 70.6056 49.6079 71.9996 57.0191H61.4316C60.4002 55.2443 58.48 54.0512 56.2808 54.0512C52.9925 54.0512 50.3273 56.7151 50.3273 60.0006C50.3273 63.2861 52.9925 65.9513 56.2808 65.9513ZM41.7663 44.501V49.6058C39.6617 52.5345 38.418 56.1195 38.418 59.9927C38.418 63.8649 39.6617 67.4503 41.7663 70.3794V76.0006H34.3466L22.3115 62.8383V76.0006H12V44.501L19.4203 44.5017L31.4548 57.1458V44.501H41.7663Z" fill="white"/>
</svg>
